<svg xmlns="http://www.w3.org/2000/svg" width="662" height="197" viewBox="230 0 420 197">
  <title>CSRep</title>
  <path fill="#0ef298"
    d="M499 73q29.546-.106 59.092-.155c9.146-.016 18.292-.037 27.439-.071q11.959-.046 23.917-.056c4.221-.004 8.442-.013 12.662-.035q5.962-.03 11.925-.022 2.185-.001 4.37-.019c8.725-.065 14.571.266 22.033 4.858 2.77 4.433 2.404 8.44 1.562 13.5-3.23 11.461-7.04 22.774-17 30-5.789 3.042-10.608 3.466-17.09 3.512l-2.862.054c-2.995.054-5.99.088-8.986.121q-3.06.05-6.119.104-7.47.126-14.943.209l-1.242 3.648-1.633 4.727-.816 2.406-.801 2.305-.73 2.126C589 142 589 142 587 144c-2.338.227-2.338.227-5.227.195l-3.125-.02-3.273-.05-3.297-.027q-4.039-.036-8.078-.098a60.6 60.6 0 0 1 2.89-11.758l1.171-3.357 1.263-3.58q.975-2.807 1.947-5.615c1.595-4.601 3.198-9.2 4.817-13.792q1.365-3.877 2.707-7.762 1.261-3.656 2.56-7.299L582.5 87.5l1.027-2.933c.677-2.544.677-2.544-.245-4.848C582.024 77.69 582.024 77.69 579 77l-.367 1.828-.508 2.422-.492 2.39C577 85.997 576.25 87.909 575 90c-2.532 1.266-4.35 1.16-7.184 1.205l-3.276.06-3.548.051-3.623.063q-5.747.097-11.494.183l-7.777.131q-9.549.162-19.098.307l2.563 2.25L524 97l-1 4h34c-4 13-4 13-6 15a121 121 0 0 1-8.727.195l-2.614-.008c-2.762-.011-5.523-.037-8.284-.062q-2.805-.016-5.61-.027-6.882-.035-13.765-.098v2l4 2-1 5 47 1c-1.405 6.322-2.53 11.235-5 17-2.668 1.334-4.744 1.157-7.731 1.193l-3.642.049a4132 4132 0 0 1-16.51.108q-4.357.02-8.712.082c-3.51.05-7.02.074-10.53.081-1.983.01-3.964.044-5.946.08-10.05-.024-10.05-.024-13.733-2.688-2.79-3.69-3.331-5.25-3.196-9.905.997-4.196 2.397-8.216 3.84-12.277.4-1.167.802-2.333 1.215-3.535 1.28-3.714 2.58-7.42 3.882-11.126q1.311-3.78 2.616-7.564A3964 3964 0 0 1 505 79l-2.437-.75L500 77c-.66-2.078-.66-2.078-1-4m99 18 5 6-2 10h30c4.081-9.17 4.081-9.17 5-16z" />
  <path fill="#0ef298"
    d="M415 73q14.07-.141 28.14-.207c4.356-.021 8.712-.05 13.068-.095q6.311-.063 12.624-.078a537 537 0 0 0 4.803-.043c15.724-.204 15.724-.204 22.365 4.423 2.649 3.532 3.056 5.27 2.719 9.676-1.584 11.01-5.573 23.436-14.719 30.324-4.82 2.612-9.63 4.008-15 5l1.969 3.105 2.531 4.082 1.3 2.042c4.008 6.52 4.008 6.52 3.2 10.771-2 2-2 2-4.338 2.227l-2.889-.032-3.125-.02-3.273-.05-3.297-.027q-4.039-.036-8.078-.098c-1.84-3.455-3.67-6.914-5.5-10.375l-1.59-2.984-1.504-2.852-1.396-2.634C442 123 442 123 442 121h-11l-1.25 4.875c-3.895 14.27-3.895 14.27-7.75 18.125-2.43.227-2.43.227-5.445.195l-3.262-.02-3.418-.05-3.441-.027q-4.218-.036-8.434-.098c11.93-36.185 11.93-36.185 18.32-53.584l1.035-2.822.896-2.416A62 62 0 0 0 420 79l-5-2zm18 18 5 6-1 7h31c3.881-8.035 3.881-8.035 5-13z" />
  <path fill="#fefefe"
    d="M355.237 72.886h3.822l4.113.016 4.22.005q5.544.006 11.087.024 5.661.014 11.322.02 11.1.016 22.199.049l-.951 4.338-.535 2.44c-.834 3.607-2.056 6.82-3.514 10.222-2.6 1.3-4.549 1.16-7.46 1.205l-3.457.06-3.747.051-3.825.063q-5.036.082-10.071.153-5.138.077-10.276.161-10.082.162-20.164.307l5 6-1 2 3.361-.048c4.145-.054 8.29-.088 12.435-.117a867 867 0 0 0 5.365-.061c2.582-.037 5.163-.054 7.745-.067.79-.015 1.58-.03 2.394-.047 5.547-.002 9.644 1.01 14.7 3.34 2.853 3.139 3.919 4.973 4.254 9.207-.289 4.311-1.274 7.727-2.817 11.73l-.81 2.126c-2.963 7.358-7.212 13.53-14.627 16.937-3.549 1.146-6.89 1.12-10.604 1.114h-1.983q-3.23-.002-6.46-.016l-4.49-.005a6390 6390 0 0 1-11.796-.024q-6.023-.014-12.046-.02-11.81-.016-23.621-.049.713-2.169 1.43-4.338l.803-2.44c1.29-3.736 2.95-8.406 5.767-11.222a84 84 0 0 1 4.887-.205l3.155-.06 3.43-.051 3.494-.063q5.549-.097 11.096-.184l7.502-.13q9.218-.162 18.436-.307l3-8-3.453.063c-4.257.073-8.513.119-12.77.157q-2.756.03-5.51.082a673 673 0 0 1-7.955.089l-2.46.062c-5.75.002-10.033-1.263-14.852-4.453-2.923-3.1-3-4.653-3-8.938 1.46-9.37 4.455-19.836 12-26.062 5.687-4.006 10.378-5.127 17.237-5.114M241 73h90c-4.125 15.125-4.125 15.125-7 18-1.994.124-3.991.178-5.989.205l-3.882.06-4.227.051-4.3.063q-5.67.082-11.339.153-5.781.077-11.562.161-11.35.162-22.701.307l2.625 1.938L265 97c-2.196 9.88-5.656 19.447-9 29h57c-3.143 14.143-3.143 14.143-7 18-2.902.267-2.902.267-6.665.29l-2.075.02c-2.27.02-4.54.024-6.81.026l-4.732.02q-4.964.017-9.929.015c-4.237 0-8.473.027-12.71.061-3.26.022-6.518.026-9.778.025q-2.342.005-4.685.027c-2.188.02-4.374.014-6.563.002l-3.77.008c-3.879-.584-5.52-1.766-8.283-4.494-2.094-4.188-1.467-9.188-.33-13.6.96-2.849 2.002-5.65 3.084-8.455l1.15-3.1a1511 1511 0 0 1 3.659-9.72 2213 2213 0 0 0 3.668-9.783 685 685 0 0 1 2.29-6.067l1.032-2.763.922-2.427c.767-2.256.767-2.256-.475-5.085l-2.062-1.5L241 76z" />
</svg>