<svg xmlns="http://www.w3.org/2000/svg" xml:space="preserve" id="svg2" width="1913.208"
  height="280.634" data-ab-filters-channel="d8e4523f-95fe-46a1-b7bd-da372dc4ea1c"
  viewBox="0 0 1913.208 280.634"><title>FACEIT</title><g id="g13452" transform="translate(0 .016)scale(3.97195)"><path id="path13353" d="M5 21.92q-5 1.81-5 4.82V70.6h23.49V49.92h32.89v-8.77H23.49v-10c0-1.25 1.25-1.88 3.76-1.88h29.13v-8.79H14.09A27.4 27.4 0 0 0 5 21.92m118.17.44a22.7 22.7 0 0 0-9.17-1.88 20.86 20.86 0 0 0-9 1.94 12 12 0 0 0-5.73 5L76.64 70.6h13.15l3.28-6.27h30.12l3.26 6.27h25.37l-22.75-43.42c-1.07-1.96-3.01-3.57-5.89-4.82zm-25.43 33.2 10.41-19.86 10.4 19.86zm83.34-27.72q-11 7.36-11 17.69t11 17.7q11 7.38 26.5 7.37h28.19v-8.77h-28.19c-4.89 0-8.18-2.07-9.9-6.2-.92-2.26-1.37-5.62-1.37-10.1s.45-7.82 1.37-10.08c1.72-4.13 5-6.2 9.9-6.2h28.19v-8.77h-28.19q-15.48 0-26.5 7.36m89.55-5.92q-5 1.81-5 4.82v37.59q0 3 5 4.83a27.5 27.5 0 0 0 9.08 1.44H322v-8.77h-29.13c-2.52 0-3.77-.63-3.77-1.89v-10H322v-8.79h-32.9v-10c0-1.25 1.25-1.88 3.77-1.88H322v-8.79h-42.29a27.5 27.5 0 0 0-9.08 1.44M362 70.31v-.1h25.27V53.08L362 42.87Zm47.06-49.78v8.77h20.76c2.46 0 3.7.62 3.7 1.88v39.47h23.71V31.18c0-1.26 1.23-1.88 3.69-1.88h20.76v-8.77z" style="fill:#151a1f;fill-opacity:1"/><path id="path13389" d="M387.76.41a.36.36 0 0 0-.67-.23 2517 2517 0 0 0-13.33 20.66h-38.4c-.47 0-.67.62-.25.78 15.93 6 38.95 15.06 51.79 20.14.33.13.86-.18.86-.41z" style="fill:#f50;fill-opacity:1"/></g></svg>